<?xml version="1.0" encoding="utf-8"?>
<!-- Generator: Adobe Illustrator 19.0.1, SVG Export Plug-In . SVG Version: 6.00 Build 0)  -->
<svg version="1.1" id="Capa_1" xmlns="http://www.w3.org/2000/svg" xmlns:xlink="http://www.w3.org/1999/xlink" x="0px" y="0px"
	 viewBox="-41 185.8 512 470" style="enable-background:new -41 185.8 512 470;" xml:space="preserve">
<style type="text/css">
	.st0{fill:#B09466;}
</style>
<g>
	<g>
		<path class="st0" d="M386.3,189.6H210c-8.3,0-15.1,6.7-15.1,15.1v92.4h206.5v-92.4C401.4,196.4,394.7,189.6,386.3,189.6z"/>
	</g>
</g>
<g>
	<g>
		<path class="st0" d="M442.9,327.2H149.2v283.5h293.7c15.5,0,28.1-12.6,28.1-28.1V355.3C471,339.8,458.4,327.2,442.9,327.2z
			 M240.2,576.7h-19.5c-8.3,0-15.1-6.7-15.1-15.1c0-8.3,6.7-15.1,15.1-15.1h19.5c8.3,0,15.1,6.7,15.1,15.1S248.5,576.7,240.2,576.7z
			 M240.2,530.4h-19.5c-8.3,0-15.1-6.7-15.1-15.1c0-8.3,6.7-15.1,15.1-15.1h19.5c8.3,0,15.1,6.7,15.1,15.1
			C255.3,523.6,248.5,530.4,240.2,530.4z M240.2,484h-19.5c-8.3,0-15.1-6.7-15.1-15.1c0-8.3,6.7-15.1,15.1-15.1h19.5
			c8.3,0,15.1,6.7,15.1,15.1S248.5,484,240.2,484z M307.9,576.7h-19.5c-8.3,0-15.1-6.7-15.1-15.1c0-8.3,6.7-15.1,15.1-15.1h19.5
			c8.3,0,15.1,6.7,15.1,15.1C323,569.9,316.2,576.7,307.9,576.7z M307.9,530.4h-19.5c-8.3,0-15.1-6.7-15.1-15.1
			c0-8.3,6.7-15.1,15.1-15.1h19.5c8.3,0,15.1,6.7,15.1,15.1C323,523.6,316.2,530.4,307.9,530.4z M307.9,484h-19.5
			c-8.3,0-15.1-6.7-15.1-15.1c0-8.3,6.7-15.1,15.1-15.1h19.5c8.3,0,15.1,6.7,15.1,15.1C323,477.3,316.2,484,307.9,484z M375.6,576.7
			h-19.5c-8.3,0-15.1-6.7-15.1-15.1c0-8.3,6.7-15.1,15.1-15.1h19.5c8.3,0,15.1,6.7,15.1,15.1C390.7,569.9,383.9,576.7,375.6,576.7z
			 M375.6,530.4h-19.5c-8.3,0-15.1-6.7-15.1-15.1c0-8.3,6.7-15.1,15.1-15.1h19.5c8.3,0,15.1,6.7,15.1,15.1
			C390.7,523.6,383.9,530.4,375.6,530.4z M375.6,484h-19.5c-8.3,0-15.1-6.7-15.1-15.1c0-8.3,6.7-15.1,15.1-15.1h19.5
			c8.3,0,15.1,6.7,15.1,15.1C390.7,477.3,383.9,484,375.6,484z M375.6,409.4H220.7c-8.3,0-15.1-6.7-15.1-15.1s6.7-15.1,15.1-15.1
			h154.9c8.3,0,15.1,6.7,15.1,15.1C390.7,402.6,383.9,409.4,375.6,409.4z"/>
	</g>
</g>
<g>
	<g>
		<path class="st0" d="M104,285.8H32.3c-8.3,0-15.1,6.8-15.1,15.1v336.3c0,8.3,6.8,15.1,15.1,15.1H104c8.3,0,15.1-6.8,15.1-15.1
			V300.8h0C119.1,292.5,112.3,285.8,104,285.8z"/>
	</g>
</g>
<g>
	<g>
		<path class="st0" d="M-41,355.3v227.2c0,15.5,12.6,28.1,28.1,28.1V327.2C-28.4,327.2-41,339.8-41,355.3z"/>
	</g>
</g>
</svg>
