<?xml version="1.0" encoding="utf-8"?>
<!-- Generator: Adobe Illustrator 19.0.1, SVG Export Plug-In . SVG Version: 6.00 Build 0)  -->
<svg version="1.1" id="Capa_1" xmlns="http://www.w3.org/2000/svg" xmlns:xlink="http://www.w3.org/1999/xlink" x="0px" y="0px"
	 viewBox="-100 218.2 271.8 271.8" style="enable-background:new -100 218.2 271.8 271.8;" xml:space="preserve">
<style type="text/css">
	.st0{fill:#B2976A;stroke:#000000;stroke-miterlimit:10;}
</style>
<g>
	<path class="st0" d="M-0.3,321.6c-2.5,0-4.6,2-4.6,4.6v69.4c0,2.5,2,4.6,4.6,4.6H46h46.3h46.3c2.5,0,4.6-2,4.6-4.6v-69.4
		c0-2.5-2-4.6-4.6-4.6s-4.6,2-4.6,4.6V391H96.9v-64.8c0-2.5-2-4.6-4.6-4.6H46c-2.5,0-4.6,2-4.6,4.6V391H4.3v-64.8
		C4.2,323.6,2.2,321.6-0.3,321.6z M50.5,330.7h37.1V391H50.5V330.7z"/>
	<path class="st0" d="M-25.8,329.4l94.9-94.9l94.9,94.9c0.9,0.9,2.1,1.3,3.2,1.3s2.3-0.4,3.2-1.3c1.8-1.8,1.8-4.7,0-6.5l-47.7-47.7
		V228c0-2.5-2-4.6-4.6-4.6s-4.6,2-4.6,4.6v38l-41.3-41.3c-1.8-1.8-4.7-1.8-6.5,0l-98.1,98.1c-1.8,1.8-1.8,4.7,0,6.5
		C-30.5,331.2-27.6,331.2-25.8,329.4z"/>
	<path class="st0" d="M167.2,428.8c-2.5,0-4.6,2-4.6,4.6v19H-24.5v-19c0-2.5-2-4.6-4.6-4.6s-4.6,2-4.6,4.6v47.2c0,2.5,2,4.6,4.6,4.6
		s4.6-2,4.6-4.6v-19h187.1v19c0,2.5,2,4.6,4.6,4.6s4.6-2,4.6-4.6v-47.2C171.8,430.8,169.7,428.8,167.2,428.8z"/>
	<path class="st0" d="M-43.2,227.4c2.5,0,4.6-2,4.6-4.6c0-2.6-2-4.6-4.6-4.6h-47.2c-2.5,0-4.6,2-4.6,4.6c0,2.6,2,4.6,4.6,4.6h19
		v187.1h-19c-2.5,0-4.6,2-4.6,4.6s2,4.6,4.6,4.6h47.2c2.5,0,4.6-2,4.6-4.6s-2-4.6-4.6-4.6h-19V227.4H-43.2z"/>
</g>
</svg>
