<?xml version="1.0" encoding="utf-8"?>
<!-- Generator: Adobe Illustrator 19.0.1, SVG Export Plug-In . SVG Version: 6.00 Build 0)  -->
<svg version="1.1" id="Layer_1" xmlns="http://www.w3.org/2000/svg" xmlns:xlink="http://www.w3.org/1999/xlink" x="0px" y="0px"
	 viewBox="-36 164.9 502 512" style="enable-background:new -36 164.9 502 512;" xml:space="preserve">
<style type="text/css">
	.st0{fill:#B2976A;}
</style>
<g>
	<g>
		<path class="st0" d="M449.7,335.6H375V186.2h74.7c5.9,0,10.7-4.8,10.7-10.7c0-5.9-4.8-10.7-10.7-10.7h-85.3c-0.3,0-0.6,0.1-1,0.2
			c-0.6,0.1-1.3,0.2-1.9,0.4c-1.1,0.3-2.1,0.9-3.1,1.5h-0.1c-0.5,0.3-1.1,0.7-1.6,1.2l-84.2,63.1c-0.4,0.2-0.7,0.5-1.2,0.9
			l-84.5,63.4c-0.2,0.2-0.5,0.3-0.7,0.6l-84.9,63.7c-0.1,0.1-0.3,0.2-0.4,0.3l-85.3,63.9l-41.5,31c-4.7,3.5-5.7,10.2-2.1,14.9
			c3.5,4.7,10.2,5.7,14.9,2.1L12.3,453v138.6h-32c-5.9,0-10.7,4.8-10.7,10.7v64c0,5.9,4.8,10.7,10.7,10.7h469.3
			c5.9,0,10.7-4.8,10.7-10.7v-320C460.3,340.4,455.5,335.6,449.7,335.6z M289.7,245.1l64-48v138.5H343c-5.9,0-10.7,4.8-10.7,10.7
			v53.3h-42.7L289.7,245.1L289.7,245.1z M204.3,309.1l64-48v138.5h-10.7c-5.9,0-10.7,4.8-10.7,10.7v42.7h-42.7L204.3,309.1
			L204.3,309.1z M119,373l64-48v127.9h-21.3c-5.9,0-10.7,4.8-10.7,10.7v64h-32V373z M33.7,437l64-48v138.6H76.3
			c-5.9,0-10.7,4.8-10.7,10.7v53.3h-32C33.7,591.6,33.7,437,33.7,437z M439,655.6H-9v-42.7h85.3c5.9,0,10.7-4.8,10.7-10.7v-53.3
			h74.7c5.9,0,10.7-4.8,10.7-10.7v-64h85.3c5.9,0,10.7-4.8,10.7-10.7v-42.7H343c5.9,0,10.7-4.8,10.7-10.7v-53.3H439V655.6z"/>
	</g>
</g>
</svg>
