<?xml version="1.0" encoding="utf-8"?>
<!-- Generator: Adobe Illustrator 19.0.1, SVG Export Plug-In . SVG Version: 6.00 Build 0)  -->
<svg version="1.1" id="Capa_1" xmlns="http://www.w3.org/2000/svg" xmlns:xlink="http://www.w3.org/1999/xlink" x="0px" y="0px"
	 viewBox="154.7 -1.2 502.8 480" style="enable-background:new 154.7 -1.2 502.8 480;" xml:space="preserve">
<g>
	<g>
		<g>
			<g>
				<path d="M338.2,34.2l-0.2,0.1l-0.2,0.3c-1,0.8-2.2,1.2-3.5,1.2c-1.6,0-3.1-0.7-4.2-1.9c-1-1.1-1.4-2.5-1.3-4s0.8-2.8,1.9-3.7
					l0.4-0.3c1-0.9,2.3-1.3,3.6-1.3c1.6,0,3.1,0.7,4.1,1.9C340.9,28.8,340.5,32.3,338.2,34.2z"/>
			</g>
		</g>
	</g>
</g>
<g>
	<g>
		<g>
			<g>
				<path d="M653.4,256.4l-53.9-14.1v-13.6c0-14.3-9.7-27-23.5-30.8c-9.7-2.7-19.9-0.7-27.9,5.4c-6,4.5-10,10.8-11.8,18l-1,4.5
					l-41.9-10.9l1.7-4.6c3.7-10.2,5.6-20.9,5.6-31.9v-44.6H565c3.1,0,5.5-2.4,5.5-5.5c0-20.7-16.8-37.5-37.5-37.5h-15.4l-0.8-3.6
					C506,36,460.2-1.2,407.9-1.2H404c-13.3,0-26.3,2.3-38.8,6.9c-2.8,1.1-4.3,4.3-3.2,7c0.6,1.4,1.6,2.5,2.9,3
					c1.3,0.6,2.8,0.7,4.2,0.2c11.2-4.2,22.9-6.3,34.9-6.3h3.9c55.3,0,100.3,45,100.3,100.3v12.7H303.7v-12.7
					c0-18.3,5-36.3,14.5-52.1c1.6-2.6,0.8-6-1.8-7.5c-1.3-0.8-2.7-1-4.1-0.6c-1.5,0.4-2.6,1.3-3.4,2.5
					c-10.5,17.3-16.1,37.3-16.1,57.7v18.2c0,3.1,2.4,5.5,5.5,5.5h13.1v33.7l-149.9-39c-1.7-0.4-3.4-0.1-4.7,0.9s-2.1,2.6-2.1,4.3
					v126.7c0,2.5,1.7,4.7,4.1,5.4l139.5,36.3l-4.2,5.4c-16.8,21.5-25.7,47.4-25.7,74.7v87.3c0,3.1,2.4,5.5,5.5,5.5s5.5-2.4,5.5-5.5
					v-87.4c0-61,49.6-110.6,110.6-110.6h26.8c16.9,0,33.5,3.2,49.3,9.5l1.4,0.6l0.7,1.2c14.5,23.2,22.2,49.9,22.2,77.3v22.8h-20.9
					v-11.5c0-35-28.4-63.4-63.4-63.4s-63.4,28.4-63.4,63.4v98c0,3.1,2.4,5.5,5.5,5.5s5.5-2.4,5.5-5.5v-98
					c0-28.9,23.5-52.4,52.4-52.4s52.4,23.5,52.4,52.4v98c0,3.1,2.4,5.5,5.5,5.5s5.5-2.4,5.5-5.5v-75.5h79l0.1,4.4
					c0.1,1.9,0.1,3.7,0.1,5.3v65.8c0,3.1,2.4,5.5,5.5,5.5s5.5-2.4,5.5-5.5v-65.8c0-5.2-0.3-10.4-0.9-15.6v-0.3
					c-0.4-3.9-1-7.8-1.8-11.6l-1.4-7l95,24.7c1.7,0.4,3.5,0,4.7-0.9c1.3-1,2.2-2.7,2.2-4.3V261.7
					C657.5,259.3,655.8,257.1,653.4,256.4z M534.6,101.6L534.6,101.6c9.4,0.6,17.8,6,22.1,14.5l3.3,6.6h-40.7V110
					c0-1.3,0-2.4-0.1-3.7l-0.2-4.7C519,101.6,534.6,101.6,534.6,101.6z M546.9,224.2c1.1-4.9,3.8-9.3,7.7-12.3
					c3.8-2.8,8.2-4.3,12.7-4.3c2,0,3.9,0.3,5.6,0.8c9,2.5,15.4,10.8,15.4,20.2v10.8l-42.5-11.1L546.9,224.2z M165.5,140.9l99.4,25.9
					l-27.5,16.7c-6.8,4.1-14.6,6.3-22.4,6.3c-3.1,0-6.4-0.4-9.7-1.1l-39.8-9.2V140.9z M354.5,265.6c-16.6,5-32.3,13.9-45.4,25.6
					l-1.8,1.6L165.5,256v-65.2l37.3,8.6c3.7,0.9,7.8,1.4,12.3,1.4c9.9,0,19.6-2.7,28-7.9l34.2-20.8c0,0,0,0,0.1-0.1
					c0.1-0.1,0.3-0.2,0.4-0.3l1.7-1.3l31.8,8.3l0.2,3.3c0.3,6.5,1.3,13.1,2.8,19.5l1.6,7.1l-21.3-4.6c-1.5-0.3-2.9-0.1-4.1,0.8
					c-1.3,0.8-2.2,2.1-2.5,3.5c-0.3,1.5,0,2.9,0.8,4.1c0.8,1.3,2.1,2.2,3.5,2.5l29.4,6.3l1,1.8c7.9,14.2,19.2,26.2,32.8,34.6
					l8.5,5.3L354.5,265.6z M364.3,249.9c-25.9-14.6-42.1-42-42.1-71.6v-44.6h84.3l-9,28.6h-4c-16.3,0-29.5,13.2-29.5,29.5
					c0,12.8,8.1,24,20.3,28l6,2l-22.4,30L364.3,249.9z M407.6,260.4h-3.2c-6.7,0-13.3-0.8-19.7-2.5l-6.6-1.6L406,219
					c1.2-1.6,1.4-3.9,0.5-5.8c-0.9-1.9-2.8-3-5-3h-8c-10.2,0-18.5-8.3-18.5-18.5s8.3-18.5,18.5-18.5h8c2.4,0,4.6-1.5,5.3-3.8
					l11.2-35.8h71.7v44.7C489.7,223.6,452.8,260.4,407.6,260.4z M473,271.9h-0.2c-5.9-2.4-11.1-4.3-16-5.8l-9.8-2.9l8.7-5.3
					c12.4-7.6,23.1-18.1,30.8-30.3l1.8-2.8l55,14.3l-6.6,5.6c-2.5,2.1-4.6,4.3-6.4,6.7l-21.5,28.7c-1.5,2-3.2,3.7-5.3,5.5l-2.6,2.1
					l-2.7-2c-8-5.6-16.3-10.2-24.6-13.7C473.3,272.1,473.1,272,473,271.9z M501.3,382.7v-22.8c0-19-3.4-37.5-10-55.2l-5.7-15.1
					l12.7,10c24.8,19.5,41.8,47.1,47.9,77.7l1,5.4H501.3z M646.5,307.2L570,289.6c-1.4-0.3-2.9-0.1-4.2,0.7c-1.3,0.8-2.1,2-2.4,3.4
					c-0.3,1.5-0.1,3,0.7,4.2c0.8,1.3,2,2.1,3.4,2.4l73.1,16.8c0.4,0.1,0.8,0.2,1.3,0.2l4.6-0.2v64l-90.9-23.7
					c-0.2,0-0.3-0.1-0.3-0.1c-0.2,0-0.3-0.1-0.5-0.1l-2.8-0.3l-0.9-2.7c-7.9-21.4-20.9-40.8-37.6-56.2l-3.5-3.3l3.4-3.3
					c1.6-1.5,3-3.1,4.3-4.8l21.5-28.7c7.2-9.6,19.4-14.1,31-11.4l19,4.4l57.2,15v41.3H646.5z"/>
			</g>
		</g>
	</g>
</g>
<g>
	<g>
		<g>
			<g>
				<path d="M461.5,168.2c0,1.3-0.6,2.8-1.6,4c-1,1-2.4,1.5-3.9,1.5c-1.4,0-2.9-0.6-4-1.6c-1-0.9-1.5-2.3-1.5-3.9
					c0-1.4,0.5-2.7,1.6-4c1-1,2.4-1.5,3.9-1.5c1.4,0,2.7,0.5,4,1.6C461,165.4,461.5,166.8,461.5,168.2z"/>
			</g>
		</g>
	</g>
</g>
<g>
	<g>
		<g>
			<g>
				<path d="M315,254.2c0,1.4-0.6,2.9-1.6,3.8c-1,1-2.5,1.7-3.8,1.7c-1.4,0-2.9-0.6-3.9-1.6s-1.6-2.4-1.6-3.9c0-1.3,0.6-2.8,1.6-3.8
					c1.1-1.1,2.5-1.7,3.9-1.7s2.8,0.6,3.9,1.7C314.5,251.3,315,252.7,315,254.2z"/>
			</g>
		</g>
	</g>
</g>
<g>
	<g>
		<g>
			<g>
				<path d="M280.5,247.5L280.5,247.5c-0.5,2.5-2.7,4.2-5.3,4.2c-0.3,0-0.7-0.1-1.3-0.2l-50.7-11.7c-3-0.7-4.8-3.6-4.2-6.6
					c0.3-1.4,1.2-2.7,2.5-3.5c0.9-0.6,1.9-0.9,2.9-0.9c0.3,0,0.7,0.1,1.3,0.2l50.6,11.7c1.4,0.3,2.7,1.2,3.5,2.4
					C280.6,244.5,280.9,246,280.5,247.5z"/>
			</g>
		</g>
	</g>
</g>
</svg>
