<?xml version="1.0" encoding="utf-8"?>
<!-- Generator: Adobe Illustrator 19.0.1, SVG Export Plug-In . SVG Version: 6.00 Build 0)  -->
<svg version="1.1" id="Capa_1" xmlns="http://www.w3.org/2000/svg" xmlns:xlink="http://www.w3.org/1999/xlink" x="0px" y="0px"
	 viewBox="114.9 25.7 463.1 433.1" style="enable-background:new 114.9 25.7 463.1 433.1;" xml:space="preserve">
<g>
	<g>
		<path d="M577.9,207.5L577.9,207.5c-0.3-1.1-0.8-2-1.8-2.6L461.5,130V29.7c0-2.2-1.8-4-4-4h-30c-2.2,0-4,1.8-4,4v75.5l-74.8-48.9
			c-1.4-0.9-3-0.9-4.4,0L116.8,204.9c-0.9,0.6-1.5,1.5-1.8,2.6c-0.2,1,0,2,0.6,3.1l14.8,22.5c0.6,0.9,1.5,1.5,2.6,1.8
			c1,0.2,2,0,3.1-0.6l19.6-12.8v6.4c0.1,8.3,3.9,16.2,10.4,21.6l3.2,2.7l-3.3,2.7c-6.6,5.5-10.3,13.5-10.3,22
			c0,8.6,3.8,16.6,10.3,22l3.2,2.7l-3.2,2.7c-6.6,5.5-10.3,13.5-10.3,22c0,8.6,3.8,16.6,10.3,22l3.2,2.7l-3.2,2.7
			c-6.6,5.5-10.3,13.5-10.3,22c0,8.6,3.8,16.6,10.3,22l3.2,2.7l-3.2,2.7c-6.6,5.5-10.3,13.5-10.3,22c0,15.9,12.9,28.8,28.8,28.8
			h324.1c15.9,0,28.8-12.9,28.8-28.8c0-8.6-3.8-16.6-10.3-22l-3.2-2.7l3.2-2.7c6.6-5.5,10.3-13.5,10.3-22s-3.8-16.5-10.3-22
			l-3.2-2.7l3.2-2.7c6.6-5.5,10.3-13.5,10.3-22c0-8.6-3.8-16.6-10.3-22l-3.2-2.7l3.2-2.7c6.6-5.5,10.3-13.5,10.3-22
			c0-8.6-3.8-16.6-10.3-22l-3.2-2.7l3.2-2.7c6.5-5.4,10.2-13.3,10.3-21.6l0.1-6.3l19.5,12.7c0.6,0.4,1.4,0.6,2.1,0.6
			c1.4,0,2.7-0.7,3.4-1.8l14.8-22.6C577.8,209.8,578.2,208.8,577.9,207.5z M431.5,33.7h22v91.2l-22-14.4V33.7z M184.4,443.3
			c-9.8,0-17.8-8-17.8-17.8s8-17.8,17.8-17.8c9.8,0,17.8,8,17.8,17.8C202.2,435.3,194.2,443.3,184.4,443.3z M184.4,396.8
			c-11.5,0-20.8-9.3-20.8-20.8s9.3-20.8,20.8-20.8s20.8,9.3,20.8,20.8C205.2,387.5,195.8,396.8,184.4,396.8z M184.4,347.2
			c-11.5,0-20.8-9.3-20.8-20.8s9.3-20.8,20.8-20.8s20.8,9.3,20.8,20.8S195.8,347.2,184.4,347.2z M184.4,297.7
			c-11.5,0-20.8-9.3-20.8-20.8s9.3-20.8,20.8-20.8s20.8,9.3,20.8,20.8S195.8,297.7,184.4,297.7z M184.4,248.2
			c-11.5,0-20.8-9.3-20.8-20.8s9.3-20.8,20.8-20.8s20.8,9.3,20.8,20.8S195.8,248.2,184.4,248.2z M269.5,197.7v-50.6l1-0.6l72-47.2
			v99.3h-72v-0.9C270.5,197.7,269.5,197.7,269.5,197.7z M487.7,206.7l-3.4,5.3c-2.9,4.7-4.5,10-4.5,15.4c-0.1,5.5,1.4,10.8,4.3,15.4
			l0,0l3.4,5.3H205.3l3.4-5.3c2.9-4.7,4.4-10,4.4-15.4c0-5.5-1.5-10.8-4.4-15.4l-3.4-5.3H487.7z M350.5,198.7V99.4l73,47.7v51.5h-73
			V198.7z M431.5,198.7v-46.3l71,46.3C502.5,198.7,431.5,198.7,431.5,198.7z M484.2,341.9l3.4,5.3h-32.3c-2.2,0-4,1.8-4,4s1.8,4,4,4
			h32.4l-3.4,5.3c-2.9,4.7-4.5,10-4.5,15.4c0,5.5,1.5,10.8,4.5,15.4l3.4,5.3h-78.4v-41.5h16c2.3,0,4-1.8,4-4s-1.8-4-4-4h-16v-41.5
			h78.4l-3.4,5.3c-2.9,4.7-4.5,10-4.5,15.4C479.8,331.8,481.3,337.2,484.2,341.9z M261.5,198.7h-71l71-46.3V198.7z M283.7,396.8h-16
			c-2.2,0-4,1.8-4,4c0,2.2,1.8,4,4,4h16v41.5h-78.4l3.4-5.3c2.9-4.7,4.4-10,4.4-15.4c0-5.5-1.5-10.8-4.4-15.4l-3.4-5.3h32.4
			c2.3,0,4-1.8,4-4c0-2.2-1.8-4-4-4h-32.4l3.4-5.3c2.9-4.7,4.4-10,4.4-15.4c0-5.5-1.5-10.8-4.4-15.4l-3.4-5.3h78.4V396.8z
			 M283.7,347.2h-78.4l3.4-5.3c2.9-4.7,4.4-10,4.4-15.4c0-5.5-1.5-10.8-4.4-15.4l-3.4-5.3h78.4V347.2z M283.7,297.7h-78.4l3.4-5.3
			c2.9-4.7,4.4-10,4.4-15.4c0-5.5-1.5-10.8-4.4-15.4l-3.4-5.4h78.4V297.7z M401.3,446.3H291.7V256.2h109.6L401.3,446.3L401.3,446.3z
			 M409.2,256.2h78.4l-3.4,5.3c-2.9,4.7-4.4,10-4.4,15.4c0,5.5,1.5,10.8,4.4,15.5l3.4,5.3h-78.4L409.2,256.2L409.2,256.2z
			 M409.3,446.3v-41.5h78.4l-3.4,5.3c-3,4.8-4.5,10.1-4.5,15.4c0,5.5,1.5,10.8,4.4,15.4l0,0l3.3,5.4H409.3z M529.3,425.5
			c0,11.5-9.3,20.8-20.8,20.8s-20.8-9.3-20.8-20.8s9.3-20.8,20.8-20.8C520,404.8,529.3,414.1,529.3,425.5z M529.3,376
			c0,11.5-9.3,20.8-20.8,20.8s-20.8-9.3-20.8-20.8s9.3-20.8,20.8-20.8S529.3,364.5,529.3,376z M529.3,326.5
			c0,11.5-9.3,20.8-20.8,20.8s-20.8-9.3-20.8-20.8s9.3-20.8,20.8-20.8S529.3,315,529.3,326.5z M529.3,276.9
			c0,11.5-9.3,20.8-20.8,20.8s-20.8-9.3-20.8-20.8s9.3-20.8,20.8-20.8C520,256.2,529.3,265.5,529.3,276.9z M508.6,248.2
			c-11.5,0-20.8-9.3-20.8-20.8s9.3-20.8,20.8-20.8s20.8,9.3,20.8,20.8C529.3,238.9,520,248.2,508.6,248.2z M558.1,225.4l-128.3-83.8
			c-0.6-0.4-77.7-50.8-81-52.9l-0.3-0.2c0,0-0.1-0.1-0.2-0.1l-0.2-0.1H348c-0.1,0-0.2,0-0.3-0.1c-0.2,0-0.4-0.1-0.5-0.1h-0.3
			c-0.3-0.1-0.6,0-0.6,0h-0.4c-0.2,0-0.3,0.1-0.5,0.1c-0.1,0-0.2,0-0.3,0.1H345h-0.1c-0.2,0.1-0.4,0.3-0.6,0.3l-0.2,0.1
			c-1,0.6-16.9,11-40.3,26.3c-6.9,4.5-13.8,9-20,13c-10.6,7-19.9,13-20.6,13.5l0,0c-0.1,0-1.2,0.8-16.2,10.5l-22.4,14.6
			c-9.5,6.2-21.4,13.9-36.2,23.6c-14.1,9.2-30.8,20.1-50.7,33.1l-2.9,2l-10.4-15.8l1.5-1.2L346.3,64.4l1,0.6l221.1,144.4
			L558.1,225.4z"/>
	</g>
</g>
</svg>
