<?xml version="1.0" encoding="utf-8"?>
<!-- Generator: Adobe Illustrator 19.0.1, SVG Export Plug-In . SVG Version: 6.00 Build 0)  -->
<svg version="1.1" id="Layer_1" xmlns="http://www.w3.org/2000/svg" xmlns:xlink="http://www.w3.org/1999/xlink" x="0px" y="0px"
	 viewBox="149.1 72.8 503 326" style="enable-background:new 149.1 72.8 503 326;" xml:space="preserve">
<g transform="translate(1 1)">
	<g>
		<g>
			<g>
				<g>
					<path d="M198.8,351.9L198.8,351.9c-0.4,1.2-1.2,2.2-2.3,2.8L196,355c-0.5,0-1.3,0-1.7,0c-1,0-2.9-0.9-3.8-2
						c-5.8-11.7-8.7-25.3-8.7-40.4c0-15,3-28.7,8.9-40.5c1.4-2.3,4.3-2.1,5.9-1.6c2.1,1.4,2.7,3.7,1.6,5.6c-2.5,4.1-8.3,16-8.3,36.4
						c0,20.4,5.8,32.3,8.3,36.5C199.2,350.4,199,351.4,198.8,351.9z"/>
				</g>
			</g>
			<g>
				<g>
					<path d="M284.2,352c-0.4,1.1-1.2,2.1-2.3,2.7l-0.3,0.2c-0.4,0.1-1.5,0.1-1.8,0.1c-1.1,0-2.9-0.9-3.8-2
						c-5.8-11.7-8.7-25.3-8.7-40.3s3-28.6,8.8-40.5c1.8-2.7,4.9-1.9,5.9-1.6c2.1,1.5,2.1,4.1,1.4,5.9c-2.5,4.3-8.1,16-8.1,36.1
						c0,20.4,5.8,32.3,8.3,36.5C284.5,350.2,284.3,351.3,284.2,352z"/>
				</g>
			</g>
			<g>
				<g>
					<path d="M480.2,269.9c0,2.6-1.4,4-4,4H425c-2.6,0-4-1.4-4-4c0-2.6,1.4-4,4-4h51.2C478.8,265.9,480.2,267.3,480.2,269.9z"/>
				</g>
			</g>
			<g>
				<g>
					<path d="M644.7,271.2l-0.6-0.4v-1.3c-0.1-1-0.4-1.8-0.8-2.3l-0.2-0.2l-0.4-0.6l-0.1-0.6c-4.7-11.5-11-20.7-18.4-26.6l-4.3-3.6
						l4.2-3.5c16.6-13.2,26.9-41.3,26.9-73.2c0-15-2.3-29.5-6.6-42l-0.2-0.6v-0.5c-0.1-1-0.3-1.8-0.8-2.3l-0.6-0.8l-0.2-0.6
						C633.8,90.4,619.8,78,604.3,78h-367c-25.8,0-46.7,36.3-46.7,80.8c0,28.1,8.1,53.7,21.6,68.4l5.9,6.5l6.8,3.1
						c4,1.9,8.2,2.8,12.4,2.8h20.8l-5.7,7.3c-4.3,5.5-8,12-10.8,19.2l-4.2,10.5l-4.2-10.5c-3.6-9-8-16.4-13.3-22.1l-5.9-6.5
						l-6.8-3.1c-4-1.9-8.2-2.8-12.4-2.8c-26.2,0-46.7,35.5-46.7,80.8s20.5,80.8,46.7,80.8h409.6c26.2,0,46.7-35.5,46.7-80.8
						C651.1,297.8,648.9,283.5,644.7,271.2z M602.2,86.3L602.2,86.3l2-0.1c9.2,0,18.6,7,25.9,19.3l3.9,6.8H382.3c-2.6,0-4,1.4-4,4
						s1.4,4,4,4h254.5l0.9,3.3c2.5,8,4,17,4.7,26.6l0.4,4.8h-81.4c-2.6,0-4,1.4-4,4c0,2.6,1.4,4,4,4h81.4l-0.4,4.9
						c-2.2,35.3-19.3,64-38.2,64H259.6l5.6-7.2c3.5-4.5,6.6-10,9.3-16.1l1.1-2.7h81c2.6,0,4-1.4,4-4c0-2.6-1.4-4-4-4h-78.1l1.4-5.6
						c0.9-3.6,1.7-7.6,2.4-11.8l0.1-0.5c0-0.5,0.1-1,0.2-1.5s0.2-0.9,0.2-1.4V177c0-0.3,0.1-0.5,0.1-0.7c0-0.4,0.1-0.7,0.1-1.1
						l0.3-2.3c0-0.4,0.1-0.7,0.1-1.1c0-0.4,0.1-0.8,0.1-1.2v-0.2c0-0.4,0-0.7,0.1-1.1c0-0.2,0-0.5,0-0.7v-0.2
						c0.1-0.9,0.1-1.8,0.1-2.8V164c0-0.9,0-1.8,0.1-2.6c0-0.8,0-1.5,0-2.2c0-1.5,0-2.9-0.1-4.6v-0.1c0-0.4,0-0.7-0.1-1
						c0-0.4,0-0.8,0-1.2v-1c0-0.4,0-0.5,0-0.6v-0.4c-0.5-8.2-1.7-16.3-3.7-24.1l-1.4-5.6h69.6c2.6,0,4-1.4,4-4c0-2.6-1.4-4-4-4
						h-72.5l-1-3.1c-2.7-6.3-5.8-11.6-9.3-16l-5.6-7.3L602.2,86.3L602.2,86.3z M237.3,231.8c-9.7,0-19.4-7.5-26.7-20.5
						c-7.7-13.7-11.9-32.3-11.9-52.3c0-19.3,4.1-37.6,11.5-51.3c7.3-13.6,17.2-21.5,27.1-21.5c9.7,0,19.4,7.5,26.7,20.5
						c7.7,13.7,11.9,32.3,11.9,52.3s-4.2,38.5-11.9,52.3C256.7,224.3,246.9,231.8,237.3,231.8z M196.7,385.3h-0.4
						c-0.7,0.1-1.3,0.1-1.8,0.1c-9.7,0-19.4-7.5-26.7-20.5c-7.7-13.7-11.9-32.3-11.9-52.3s4.2-38.5,11.9-52.3
						c7.3-13,17-20.5,26.7-20.5s19.4,7.5,26.7,20.5c7.7,13.7,11.9,32.3,11.9,52.3c0,19.3-4,37.4-11.3,51
						C215,376.3,205.9,384.2,196.7,385.3z M217.7,385.4l4.7-7c1.6-2.3,2.9-4.5,4.4-6.8c1.8-2.9,3.5-6.1,5-9.5l1.3-2.7h8.5l1.2,2.6
						c2.7,6.1,5.9,11.5,9.6,16.1l5.7,7.3H217.7L217.7,385.4z M279.9,385.4c-0.6,0-1.3,0-2-0.1h-0.1c-11.7-1.3-22.7-13-29.5-31.4
						v-0.1l-0.3-0.3v-0.6c-4.3-12-6.6-25.9-6.6-40.3c0-19.9,4.2-38.5,11.9-52.2c7.3-13.1,17-20.6,26.7-20.6s19.4,7.5,26.7,20.5
						c7.7,13.7,11.9,32.3,11.9,52.3s-4.2,38.5-11.9,52.2C299.3,377.9,289.5,385.4,279.9,385.4z M561.4,316.8h81.3l-0.2,4.6
						c-2.3,35.3-19.4,64-38.3,64H302.3l5.6-7.2c3.6-4.6,6.8-10,9.5-16.2l1.3-2.7h80.7c2.6,0,4-1.4,4-4s-1.4-4-4-4h-77.6l1.5-5.6
						c2.8-10.4,4.2-21.5,4.2-33c0-11.2-1.4-22.3-4.2-33l-1.5-5.6h69.1c2.6,0,4-1.4,4-4s-1.4-4-4-4h-72.2l-1.2-2.7
						c-2.7-6-5.9-11.4-9.6-16.2l-5.6-7.2h301.9c9.2,0,18.6,7,25.9,19.3l3.9,6.8H510.3c-2.6,0-4,1.4-4,4c0,2.6,1.4,4,4,4h126.5
						l0.9,3.3c2.5,8,4,17,4.7,26.6l0.4,4.8h-81.4c-2.6,0-4,1.4-4,4C557.4,315.4,558.8,316.8,561.4,316.8z"/>
				</g>
			</g>
			<g>
				<g>
					<path d="M522.9,312.6c0,2.6-1.4,4-4,4h-25.6c-2.6,0-4-1.4-4-4s1.4-4,4-4h25.6C521.5,308.6,522.9,310,522.9,312.6z"/>
				</g>
			</g>
			<g>
				<g>
					<path d="M446.1,312.6c0,2.6-1.4,4-4,4h-85.3c-2.6,0-4-1.4-4-4s1.4-4,4-4h85.3C444.7,308.6,446.1,310,446.1,312.6z"/>
				</g>
			</g>
			<g>
				<g>
					<path d="M599.7,355.3c0,2.6-1.4,4-4,4h-68.3c-2.6,0-4-1.4-4-4c0-2.6,1.4-4,4-4h68.5c0.8,0,1.9,0.2,2.7,0.9
						C599.3,352.9,599.7,354,599.7,355.3z"/>
				</g>
			</g>
			<g>
				<g>
					<path d="M471.7,355.3c0,2.6-1.4,4-4,4h-17.1c-2.6,0-4-1.4-4-4c0-2.6,1.4-4,4-4h17.3c0.8,0,1.9,0.2,2.7,0.9
						C471.3,352.9,471.7,354,471.7,355.3z"/>
				</g>
			</g>
			<g>
				<g>
					<path d="M241.1,195.4c0.6,0.9,0.7,1.9,0.4,3c-0.3,0.9-0.9,1.7-1.7,2.3c-0.3,0.1-0.5,0.1-0.9,0.2h-0.2c-0.9,0.3-1.4,0.3-1.5,0.3
						c-1,0-2.9-0.9-3.8-2.1c-5.8-11.6-8.7-25.2-8.7-40.2c0-15.2,3-28.8,8.8-40.5c1.8-2.8,5-1.9,6-1.6c0.9,0.6,1.6,1.5,2,2.6
						c0.3,1.1,0.2,2.1-0.4,3c-2.5,4.2-8.3,16-8.3,36.4C232.8,179.4,238.6,191.3,241.1,195.4L241.1,195.4z"/>
				</g>
			</g>
			<g>
				<g>
					<path d="M463.2,159c0,2.6-1.4,4-4,4h-25.6c-2.6,0-4-1.4-4-4c0-2.6,1.4-4,4-4h25.6C461.8,155,463.2,156.4,463.2,159z"/>
				</g>
			</g>
			<g>
				<g>
					<path d="M403.4,159c0,2.6-1.4,4-4,4h-85.3c-2.6,0-4-1.4-4-4c0-2.6,1.4-4,4-4h85.3C402,155,403.4,156.4,403.4,159z"/>
				</g>
			</g>
			<g>
				<g>
					<path d="M522.9,159c0,2.6-1.4,4-4,4h-25.6c-2.6,0-4-1.4-4-4c0-2.6,1.4-4,4-4h25.6C521.5,155,522.9,156.4,522.9,159z"/>
				</g>
			</g>
			<g>
				<g>
					<path d="M608.2,201.7c0,2.6-1.4,4-4,4h-68.3c-2.6,0-4-1.4-4-4c0-2.6,1.4-4,4-4h68.5c0.8,0,1.9,0.2,2.7,0.9
						C607.8,199.3,608.2,200.4,608.2,201.7z"/>
				</g>
			</g>
			<g>
				<g>
					<path d="M497.3,201.7c0,2.6-1.4,4-4,4H408c-2.6,0-4-1.4-4-4c0-2.6,1.4-4,4-4h85.5c0.8,0,1.9,0.2,2.7,0.9
						C496.9,199.3,497.3,200.4,497.3,201.7z"/>
				</g>
			</g>
		</g>
	</g>
</g>
</svg>
