<?xml version="1.0" encoding="utf-8"?>
<!-- Generator: Adobe Illustrator 19.0.1, SVG Export Plug-In . SVG Version: 6.00 Build 0)  -->
<svg version="1.1" id="Слой_1" xmlns="http://www.w3.org/2000/svg" xmlns:xlink="http://www.w3.org/1999/xlink" x="0px" y="0px"
	 viewBox="0 0 79.5 98" style="enable-background:new 0 0 79.5 98;" xml:space="preserve">
<g>
	<g>
		<path d="M69.8,63.1c0.2-2.7,0.3-4.9,0.3-7c0-2.6,1-4.7,2.8-6.6c1.5-1.6,3.3-3.4,4.9-5.3c1.8-2.2,2.2-4.4,1.3-6.6
			c-0.4-1.1-1.1-2.2-2.1-3.3c-1.3-1.5-2.6-2.9-4-4.2c-1.9-1.9-2.9-4.2-2.9-6.9c0-2.3-0.1-4.6-0.3-6.8c-0.3-4.2-2.6-6.4-6.8-6.7
			c-2.3-0.2-4.6-0.2-6.8-0.3c-2.7,0-4.9-1-6.8-2.9C49,6,48.5,5.5,48,5c-0.4-0.4-0.8-0.8-1.2-1.2c-1.5-1.5-3.5-3.2-6.1-3.9l-1.9,0
			c-2.9,0.8-5,2.8-6.7,4.6c-0.3,0.3-0.6,0.6-1,0.9l-0.2,0.2C30.6,6,30.3,6.3,30,6.5c-1.8,1.9-4,2.9-6.8,2.9c-2.7,0-5,0.1-7,0.3
			C12.8,10,10.5,12,10,15.2c-0.4,2.5-0.5,5.1-0.5,7.6l0,0.3c0,2.8-1,5.1-3,7c-1.7,1.7-3.3,3.3-4.6,5c-2.5,3.1-2.5,6.2,0,9.3
			c1.5,1.8,3.1,3.5,4.5,4.9c2,2,3,4.3,3,7c0,2.5,0.1,4.8,0.3,7.1c0.2,2.3,1.2,4,2.9,5.1c0,0,0,0,0.2,0.1l0,0.4h0l0.1-0.3l0.7,0.3
			l-3.4,5.9c-1.5,2.6-3,5.1-4.4,7.7l-1.7,2.9c-0.3,0.5-0.4,1-0.3,1.3c0.1,0.2,0.4,0.4,0.9,0.4l0.3,0c3.5,0.4,6.4,0.8,9.4,1.1
			c1,0.1,1.7,0.5,2.3,1.3c1.7,2.3,3.5,4.7,5.2,7l0.6,0.7c0.3,0.5,0.7,0.7,1,0.7c0.3,0,0.6-0.3,0.9-0.9c0.1-0.1,0.1-0.2,0.1-0.3
			l10.1-17.4c0.1-0.2,0.3-0.4,0.4-0.6l1.3-2l0.1,1.9c0.1,0,0.3,0.1,0.4,0.1l0.3,0.1c0.9,0.3,1.8,0.5,2.6,0.5c0.9,0,1.7-0.2,2.7-0.5
			l0.3-0.1c0.4-0.1,0.7-0.2,1.1-0.3l0.5-0.1l0.3,0.5c0.1,0.2,0.3,0.4,0.4,0.6l3.9,6.7c2.1,3.6,4.2,7.2,6.3,10.8c0.3,0.6,0.7,1,1,1
			c0.2,0.1,0.6-0.2,1.1-0.9l1.9-2.5c1.3-1.8,2.7-3.6,4-5.3c0.4-0.5,1-0.9,1.6-1c2.5-0.3,5.1-0.6,7.6-0.9l2.1-0.3
			c1-0.1,1.3-0.4,1.3-0.5c0.1-0.1,0.1-0.5-0.4-1.4l-8.5-14.7c-0.1-0.1-0.1-0.2-0.2-0.3c0-0.1-0.1-0.2-0.2-0.3L66,69.2l0.5-0.3
			C68.5,67.6,69.6,65.7,69.8,63.1z M23.4,95.6l-0.6-0.7c-0.1-0.1-0.1-0.2-0.2-0.2c-0.2-0.2-0.3-0.3-0.4-0.5L21.2,93
			c-1.3-1.7-2.6-3.5-3.9-5.2c-0.4-0.6-0.9-0.9-1.5-0.9c-2-0.2-4-0.5-5.9-0.7l-2-0.2c-0.2,0-0.3,0-0.5-0.1l-1.5-0.3l1.9-3.3
			c2.3-4,4.5-7.9,6.8-11.8c0.2-0.4,0.7-0.7,1.2-0.7c2.3,0.1,4.5,0.2,6.8,0.3l3,0.2L25,71.5c-0.1,0.2-0.2,0.4-0.3,0.6l-5.1,8.8
			c-0.2,0.3-0.3,0.5-0.4,0.8c-0.2,0.4-0.1,0.7,0.4,1c0.4,0.2,0.7,0.1,1-0.2c0.3-0.5,0.6-1,0.9-1.5l0.3-0.6c1.3-2.3,2.7-4.6,4-7
			l1.5-2.6l0.6,0.4c1.4,1,2.6,2.2,3.8,3.3l0.2,0.2c0.6,0.6,1.3,1.3,1.9,1.8l0.4,0.3L23.4,95.6z M70.1,79.6l3.5,6.1l-2.2,0.3
			c-1.1,0.1-2.1,0.3-3.1,0.4l-1.2,0.2c-1.1,0.1-2.4,0.3-3.6,0.4c-0.6,0-1,0.3-1.5,0.9c-1.2,1.6-2.4,3.2-3.6,4.8l-1.1,1.5
			c-0.1,0.2-0.3,0.3-0.4,0.5l-0.8,1.1L45.3,76.9l7-6.5l1.6,2.8c0.3,0.5,0.5,0.9,0.8,1.4l1.7,3c0.9,1.5,1.7,3,2.6,4.5
			c0.1,0.2,0.6,1,1.3,0.7c0.2-0.1,0.3-0.3,0.4-0.4c0.1-0.3,0-0.6-0.2-1c-1.1-1.9-2.2-3.8-3.3-5.7l-3.1-5.3l2.1-0.1
			c0.3,0,0.7,0,1-0.1l0.9,0c1.8-0.1,3.6-0.2,5.4-0.2c0.4,0,1.1,0.2,1.4,0.7C66.6,73.4,68.4,76.5,70.1,79.6z M63.3,68.1
			c-2.1,0.2-4.3,0.3-6.8,0.3c-3.3,0-6.2,1.3-8.8,4c-1.2,1.2-2.4,2.4-4,3.8c-1.3,1.1-2.5,1.7-3.9,1.7c-1.4,0-2.7-0.6-4-1.7
			c-1-0.9-2.1-1.9-3.1-2.9l-1-0.9c-1.8-1.7-3.4-3.1-5.6-3.5c-1.3-0.2-2.7-0.3-4.1-0.4l-0.5,0c-0.7,0-1.5-0.1-2.2-0.1
			c-1.1,0-2.2-0.1-3.3-0.2c-2.9-0.3-4.5-1.9-4.7-4.8c-0.2-2.6-0.3-5.2-0.3-7.1c0-3.1-1.3-5.9-3.9-8.4c-1.4-1.4-2.7-2.7-3.8-4
			c-2.3-2.7-2.4-5.2,0-8c1.4-1.6,2.6-2.9,3.7-3.9c2.8-2.6,4.1-5.8,4.1-9.7c0-1.9,0-3.8,0.2-5.8c0.3-3.1,2.1-4.8,5.2-5
			c1.2-0.1,2.4-0.1,3.6-0.2l0.8,0c1.2,0,2.3-0.1,3.5-0.1c2.3-0.1,4.3-1.1,6.2-2.8c0.6-0.5,1.2-1.1,1.8-1.7l0.1-0.1
			c1-0.9,2-1.9,3-2.8C38.5,1,41,1,44,3.6c1.2,1.1,2.4,2.2,3.5,3.3L48.7,8c1.9,1.9,4.2,2.9,6.7,3c1,0,2,0.1,3,0.1l0.2,0
			c1.4,0,2.9,0.1,4.3,0.2c3.3,0.2,5.1,1.9,5.3,5.2c0.1,1.9,0.2,3.7,0.3,5.5l0,0.2c0,0.6,0,1.2,0.1,1.8c0.1,2.6,1.1,5,2.9,6.9
			l0.4,0.4c0.3,0.3,0.6,0.6,0.9,0.9c1.1,1.1,2.2,2.3,3.2,3.4c2.6,3,2.6,5.4,0,8.5c-1,1.1-2.1,2.4-3.5,3.6c-2.8,2.6-4.1,5.8-4.1,9.8
			c0,1.8,0,3.8-0.2,5.7C67.9,66.2,66.3,67.8,63.3,68.1z"/>
	</g>
	<g>
		<path d="M58,21.6c-4.8-4.8-11.3-7.5-18.2-7.6h-0.1C25.5,14,14.2,25.3,14,39.6c-0.1,6.7,2.5,13.1,7.3,18c4.8,5,11.3,7.7,18.3,7.8
			h0.3c6.7,0,13.1-2.6,17.9-7.4c4.9-4.8,7.6-11.3,7.7-18.2C65.5,33,62.9,26.5,58,21.6z M56.5,57c-2.3,2.2-4.9,3.9-7.7,5
			c-2.8,1.1-5.9,1.8-9,1.8h-0.4c-13.3-0.2-24-11.1-23.8-24.2c0.1-6.5,2.6-12.6,7.1-17.1c4.5-4.5,10.5-7,17-7h0.2
			c6.5,0.1,12.6,2.6,17.1,7.3c4.4,4.6,6.9,10.6,6.8,17C63.8,46.4,61.2,52.5,56.5,57z"/>
	</g>
	<g>
		<path d="M59,42.9C57.3,53,48.3,60,38,59.1c-2.7-0.2-5.3-1-7.7-2.3c-0.4-0.2-1-0.6-0.6-1.3c0.1-0.3,0.4-0.4,0.6-0.4
			c0.2,0,0.4,0.1,0.7,0.2c3,1.6,6.1,2.4,9.2,2.3c9-0.3,16.5-7.1,17.3-16c0.9-9.3-5.1-17.4-14.1-19.4c-5.6-1.2-11.3,0.3-15.6,4.2
			c-4.3,3.9-6.5,9.4-5.8,15.1c0.3,2.9,1.3,5.6,2.9,8l0.1,0.2c0.1,0.1,0.1,0.2,0.2,0.2c0.2,0.4,0.3,0.9-0.1,1.2
			c-0.2,0.1-0.4,0.2-0.6,0.1c-0.3-0.1-0.4-0.3-0.5-0.4c-0.1-0.2-0.2-0.3-0.3-0.5c-0.1-0.2-0.2-0.3-0.3-0.5c-0.8-1.4-1.6-2.8-2.1-4.3
			c-1.7-5.2-1.1-11,1.7-15.7c2.8-4.8,7.5-8.2,12.9-9.3c0.9-0.2,1.8-0.3,2.5-0.3l0.4,0c0.2,0,0.4,0,0.5,0c6,0,11.6,2.6,15.4,7
			C58.3,31.6,59.9,37.3,59,42.9z"/>
	</g>
	<g>
		<path d="M52.3,40.5c-0.4,0-0.8-0.1-0.9-1.1c-0.4-5.3-3.1-8.9-8-10.7c-0.8-0.3-1.7-0.4-2.5-0.5l-0.1,0.4l0-0.4
			c-0.4,0-0.8-0.1-1.2-0.2C39,27.9,39,27.5,39,27.2c0-0.4,0.2-0.7,0.8-0.7c0.1,0,0.2,0,0.3,0h0.2c0.1,0,0.2,0,0.3,0
			c6.8,0.5,12.2,6,12.4,12.8C53,39.8,52.9,40.5,52.3,40.5z"/>
	</g>
</g>
</svg>
