<?xml version="1.0" encoding="utf-8"?>
<!-- Generator: Adobe Illustrator 19.0.1, SVG Export Plug-In . SVG Version: 6.00 Build 0)  -->
<svg version="1.1" id="Capa_1" xmlns="http://www.w3.org/2000/svg" xmlns:xlink="http://www.w3.org/1999/xlink" x="0px" y="0px"
	 viewBox="123.8 13.4 447.2 476.4" style="enable-background:new 123.8 13.4 447.2 476.4;" xml:space="preserve">
<g>
	<g>
		<g>
			<g>
				<path d="M264.3,285.3c-33.4,0-60.5,27.1-60.5,60.5s27.1,60.5,60.5,60.5s60.5-27.1,60.5-60.5S297.7,285.3,264.3,285.3z
					 M264.3,397.3c-28.4,0-51.5-23.1-51.5-51.5s23.1-51.5,51.5-51.5s51.5,23.1,51.5,51.5S292.7,397.3,264.3,397.3z"/>
			</g>
		</g>
	</g>
</g>
<g>
	<g>
		<g>
			<g>
				<path d="M400.3,317.3h-39.7l-0.7-2.4c-1.6-4.8-3.6-9.7-6.1-14.8l-1.1-2.3l28-28c1.7-1.7,1.7-4.7,0-6.4l-34-33.9
					c-1.7-1.7-4.6-1.7-6.4,0l-28,28l-2.3-1.1c-4.8-2.5-9.7-4.5-14.8-6.1l-2.4-0.7v-39.8c0-2.5-2-4.5-4.5-4.5h-48
					c-2.5,0-4.5,2-4.5,4.5v39.7l-2.4,0.7c-4.8,1.6-9.7,3.6-14.8,6.1l-2.3,1.1l-28-28c-1.7-1.7-4.7-1.7-6.4,0l-34,33.9
					c-1.7,1.7-1.7,4.6,0,6.4l28,28l-1.1,2.3c-2.5,4.8-4.5,9.7-6.1,14.8l-0.7,2.4h-39.7c-2.5,0-4.5,2-4.5,4.5v48c0,2.5,2,4.5,4.5,4.5
					H168l0.7,2.4c1.6,4.8,3.6,9.7,6.1,14.8l1.1,2.3l-28,28c-1.7,1.7-1.7,4.7,0,6.4l34,33.9c1.7,1.7,4.6,1.7,6.4,0l28-28l2.3,1.1
					c4.8,2.5,9.7,4.5,14.8,6.1l2.4,0.7v39.9c0,2.5,2,4.5,4.5,4.5h48c2.5,0,4.5-2,4.5-4.5v-39.7l2.4-0.7c4.8-1.6,9.7-3.6,14.8-6.1
					l2.3-1.1l28,28c1.7,1.7,4.7,1.7,6.4,0l34-33.9c1.7-1.7,1.7-4.6,0-6.4l-28-28l1.1-2.3c2.5-4.8,4.5-9.7,6.1-14.8l0.7-2.4h39.7
					c2.5,0,4.5-2,4.5-4.5v-48C404.8,319.3,402.8,317.3,400.3,317.3z M395.7,363.3h-1.9v2h-36.7c-2.1,0-3.8,1.4-4.4,3.4
					c-2.1,8.2-5.4,16.1-9.7,23.5c-1.1,1.7-0.8,4,0.7,5.5L371,425l-27.5,27.6l-27.3-27.4c-1.5-1.5-3.7-1.7-5.5-0.7
					c-7.4,4.3-15.3,7.6-23.5,9.7c-2,0.5-3.4,2.3-3.4,4.4v38.7h-39v-38.7c0-2-1.4-3.8-3.4-4.4c-8.2-2.1-16.1-5.4-23.5-9.7
					c-1.7-1-4-0.8-5.5,0.7l-27.3,27.4L157.5,425l27.3-27.3c1.4-1.5,1.7-3.7,0.7-5.5c-4.3-7.4-7.6-15.3-9.7-23.5
					c-0.5-2-2.3-3.4-4.4-3.4h-38.7v-39h38.7c2,0,3.8-1.4,4.4-3.4c2.1-8.2,5.4-16.1,9.7-23.5c1-1.7,0.8-4-0.7-5.5l-27.3-27.3
					l27.6-27.6l27.3,27.4c1.5,1.5,3.7,1.7,5.5,0.7c7.7-4.5,15.6-7.8,23.5-9.7c2-0.5,3.4-2.3,3.4-4.4v-38.7h39V253
					c0,2.1,1.4,3.8,3.4,4.4c8.2,2.1,16.1,5.4,23.5,9.7c1.7,1,4,0.8,5.5-0.7l27.3-27.4l27.6,27.6l-27.4,27.3
					c-1.5,1.4-1.7,3.7-0.7,5.5c4.5,7.7,7.8,15.6,9.7,23.5c0.5,2,2.3,3.4,4.4,3.4h38.6V363.3z"/>
			</g>
		</g>
	</g>
</g>
<g>
	<g>
		<g>
			<g>
				<path d="M496.3,149.3h-28.9l-0.2-3.3C465,92.2,444,27.4,391.9,21.8l-3.1-0.2v-3.7c0-2.5-2-4.5-4.5-4.5h-48c-2.5,0-4.5,2-4.5,4.5
					v3.7l-3.1,0.2c-52.1,5.7-73.1,70.4-75.3,124.2l-0.2,3.3h-28.9c-2.5,0-4.5,2-4.5,4.5v32c0,2.5,2,4.5,4.5,4.5h272
					c2.5,0,4.5-2,4.5-4.5v-32C500.8,151.3,498.8,149.3,496.3,149.3z M491.8,181.3h-263v-23h64v-9h-30.6l0.2-3.7
					c2-48.8,20.4-108.1,65.4-114.6l4-0.7v72h9v-80h39v80h9v-72l4.1,0.7c45,6.6,63.4,65.9,65.4,114.7l0.2,3.7H315.8v9h176V181.3z"/>
			</g>
		</g>
	</g>
</g>
<g>
	<g>
		<g>
			<g>
				<path d="M560.3,261.3h-22.5l15.9-15.9c1.7-1.7,1.7-4.6,0-6.4l-22.6-22.6c-1.7-1.7-4.7-1.7-6.4,0l-15.9,15.9v-22.5
					c0-2.5-2-4.5-4.5-4.5h-32c-2.5,0-4.5,2-4.5,4.5v22.5l-15.9-15.9c-1.7-1.7-4.7-1.7-6.4,0L422.9,239c-1.7,1.7-1.7,4.7,0,6.4
					l15.9,15.9h-22.5c-2.5,0-4.5,2-4.5,4.5v32c0,2.5,2,4.5,4.5,4.5h22.5l-15.9,15.9c-1.7,1.7-1.7,4.7,0,6.4l22.6,22.6
					c1.7,1.7,4.7,1.7,6.4,0l15.9-15.9v22.5c0,2.5,2,4.5,4.5,4.5h32c2.5,0,4.5-2,4.5-4.5v-22.5l15.9,15.9c1.8,1.6,4.6,1.6,6.4-0.1
					l22.5-22.5c1.7-1.7,1.7-4.7,0-6.4l-15.9-15.9h22.5c2.5,0,4.5-2,4.5-4.5v-32C564.8,263.3,562.8,261.3,560.3,261.3z M555.8,293.3
					h-22.3c-1.9,0-3.6,1.2-4.2,2.9c-0.6,1.6-1.1,3-1.8,4.3c-0.8,1.7-0.5,3.7,0.9,5l15.8,15.8l-16.3,16.3l-15.7-15.8
					c-1.3-1.3-3.4-1.7-5.1-0.9c-1.4,0.7-2.9,1.3-4.1,1.8c-1.8,0.6-3,2.3-3,4.2v22.4h-23V327c0-1.9-1.2-3.6-3-4.2
					c-1.6-0.6-2.9-1.1-4.3-1.8c-1.6-0.8-3.6-0.4-5.1,1l-15.9,15.7l-16.2-16.2l15.8-15.7c1.4-1.3,1.8-3.4,0.9-5.1
					c-0.7-1.6-1.3-3-1.8-4.3c-0.6-1.8-2.3-3-4.2-3h-22.4v-23h22.3c1.9,0,3.6-1.2,4.2-3c0.6-1.6,1.1-3,1.8-4.3c0.8-1.7,0.4-3.7-0.9-5
					l-15.7-15.9l16.2-16.2l15.8,15.8c1.3,1.4,3.4,1.8,5.1,0.9c1.3-0.6,2.7-1.3,4.2-1.8c1.8-0.6,3-2.4,3-4.3v-22.3h23v22.3
					c0,1.9,1.2,3.6,3,4.2c1.6,0.6,2.9,1.1,4.3,1.8c1.6,0.8,3.7,0.4,5-1l15.8-15.7l16.2,16.3L528.3,258c-1.4,1.3-1.8,3.4-0.9,5.1
					c0.7,1.6,1.3,3,1.8,4.3c0.6,1.8,2.3,3,4.2,3h22.4L555.8,293.3L555.8,293.3z"/>
			</g>
		</g>
	</g>
</g>
<g>
	<g>
		<g>
			<g>
				<path d="M488.3,253.3c-15.7,0-28.5,12.8-28.5,28.5c0,15.7,12.8,28.5,28.5,28.5s28.5-12.8,28.5-28.5
					C516.8,266.1,504,253.3,488.3,253.3z M488.3,301.3c-10.8,0-19.5-8.8-19.5-19.5c0-10.7,8.8-19.5,19.5-19.5s19.5,8.8,19.5,19.5
					C507.8,292.5,499,301.3,488.3,301.3z"/>
			</g>
		</g>
	</g>
</g>
</svg>
