<?xml version="1.0" encoding="utf-8"?>
<!-- Generator: Adobe Illustrator 19.0.1, SVG Export Plug-In . SVG Version: 6.00 Build 0)  -->
<svg version="1.1" id="Layer_1" xmlns="http://www.w3.org/2000/svg" xmlns:xlink="http://www.w3.org/1999/xlink" x="0px" y="0px"
	 viewBox="97 154.4 501.3 496.8" style="enable-background:new 97 154.4 501.3 496.8;" xml:space="preserve">
<g transform="translate(1 1)">
	<g>
		<g>
			<g>
				<path d="M573.8,571c-50.5-26.7-88-41.2-121.6-46.8l-5.6-0.9l7.3-9.9c0.9-0.9,1.2-2,0.8-3.2l-0.1-0.2v-0.2l-8.2-32.7l0.8-1.3
					c20.7-29.2,32.5-65.3,32.5-99.2v-37h28.7c3.1,0,4.9-1.8,4.9-4.9c0-3.1-1.8-4.9-4.9-4.9h-11.9v-11.9
					c0-64.3-42.8-119.6-106.6-137.7l-2.6-0.7v-4.4c0-12-9.7-21.7-21.7-21.7H332c-12,0-21.7,9.7-21.7,21.7v4.4l-2.6,0.7
					c-63.7,18-106.5,73.4-106.5,137.8v11.9h-11.9c-3.1,0-4.9,1.8-4.9,4.9c0,3.1,1.8,4.9,4.9,4.9H218v37c0,33.9,11.8,70,32.4,99.1
					l0.9,1.4l-8.1,32.5c0,3,0.6,3.8,0.7,3.9l0.3,0.3l7,9.5l-5.6,0.9c-33.9,5.7-71.4,20.1-121.6,46.8c-14.4,6.9-23.3,21.5-23.3,38.1
					v36.1c0,3.1,1.8,4.9,4.9,4.9h486.8c3.1,0,4.9-1.8,4.9-4.9v-36.1C597.1,593.9,587.9,579,573.8,571z M427.9,208.4
					c0.5,0.3,1,0.6,1.4,1c0.5,0.3,0.9,0.6,1.4,0.9c11.4,8.5,21.5,18.2,29.1,28.1l3.5,4.5l-49.3,9.8l9.6-47L427.9,208.4z
					 M237.7,238.5c7.4-9.7,17.4-19.4,29-28.1c0.5-0.4,1-0.7,1.5-1s1-0.6,1.5-1l4.4-2.8l9.6,47l-49.2-9.6L237.7,238.5z M211,329.8
					v-11.9c0-22.4,5.6-44.4,16.2-63.5l1.2-2.3l60.3,11.9h1.3c1.4,0,2.5-0.3,4.1-0.9l0.1-0.1c0.1,0,0.3-0.1,0.4-0.1s0.3-0.1,0.4-0.1
					c0.9-0.8,1.1-2.2,0.8-3.2l-0.2-0.5l-12-58.7l2.4-1.2c5.9-2.9,12.5-5.5,19.5-7.7l4.6-1.4v27.2c0,3.1,1.8,4.9,4.9,4.9
					c3.2,0,4.9-1.7,4.9-4.9v-42c0-5.7,4.5-11.9,11.9-11.9h33.6c5.7,0,11.9,4.5,11.9,11.9v42c0,3.1,1.8,4.9,4.9,4.9s4.9-1.8,4.9-4.9
					v-27.2l4.5,1.4c6.7,2,13.5,4.7,20.2,8l2.5,1.2l-11.7,57.1c0,1.9,0.8,4.1,1.5,4.8c1.1,1.1,1.9,1.4,3.4,1.4h1.3l59.8-12.6l1.2,2.3
					c10.8,19.3,16.6,41.5,16.6,64.2v11.9H211z M227.8,376.6v-37.1h242v37.1c0,34.7-11.4,68.8-32.1,96l-0.7,0.9l-0.7,0.2l-1.8,1.8
					c-4.2,5.6-8.7,10.8-13.5,15.6c-20.7,19.3-45,30.5-68.4,31.7h-0.9l-0.7-0.4c-0.6-0.3-1.4-0.4-2.2-0.4c-0.7,0-1.3,0.1-1.9,0.4
					l-0.9,0.4h-0.8c-14.1-0.6-29-5.1-43.2-13c-14.1-8-27.1-19.5-38.9-34.2l-1.8-1.8l-0.7-0.2l-0.7-0.8
					C239.2,445.4,227.8,411.3,227.8,376.6z M340.5,558.9l8.3-18.6l15.8,34.6l10.4,23.4h-51.7L340.5,558.9z M314.1,593l-14.6-19.9
					L264.8,525c-0.1-0.1-0.3-0.2-0.4-0.3l-0.2-0.2l-0.4-0.4l-10.3-14.2l5.2-23.1l4.5,4.9c1,1.1,2.2,2.3,3.4,3.5
					c20.4,20.9,44.5,33.5,69.8,36.6l4.7,0.5L314.1,593z M356.5,532.3l4.7-0.5c24.8-3.1,48.5-15.3,68.6-35.4l0.8-0.8
					c1.3-1.3,2.6-2.6,3.8-3.9l4.5-4.9l5.2,23.1l-10.2,13.8c-0.2,0.1-0.5,0.4-0.8,0.9l-35,48.4l-14.6,20.1L356.5,532.3z M302.6,640.3
					H110.3v-31.2c0-12.4,6.9-23.6,17.9-29.1c53.6-28.5,92.9-43,127.5-47.3l2.1-0.2l0.5,0.7l51.7,71L302.6,640.3z M313,640.3
					l6.4-32.2h58.8l6.2,32.2H313z M587.4,640.3H395l-7.2-36.1l52.8-72.6l2.1,0.3c35.4,5.4,75.7,20.4,126.8,47.3
					c11.2,6.5,17.8,17.7,17.8,29.9v31.2H587.4z"/>
			</g>
		</g>
	</g>
</g>
</svg>
